:SAMPLES-PER-SECOND 30
:FULLY-SPECIFIED
:DEGREES
62
root  15.6219 38.4117 -0.48487 103.006 -82.713 -114.756
RightUpLeg  5.26452 -9.03945 5.43611
RightLeg  19.7441 -9.48807 -0.766746
RightFoot  -13.782 -0.152504 -2.78505
RightToes  3.49245e-010 0 -3.6325e-017
Spine  9.2643 -1.70851 15.1804
Spine1  5.38515 -0.0197014 -0.435197
HEad  0.801746 4.90599 -6.02555
LeftShoulder1  -0.69025 5.31633 -31.9295
LeftArm  0.632278 13.6037 -40.4108
LeftForeArm  22.1785 -16.6308 -5.82719
LeftHand  0.00325299 7.9359 1.96407
RightShoulder  -0.900294 -5.97857 29.7868
RightArm  10.6623 -2.44315 44.2583
RightForeArm  12.0071 8.83853 5.95568
RightHand  -0.431566 5.24351 -5.01355
LeftUpLeg  -8.75756 1.7048 19.6131
LeftLeg  15.0705 -3.7393 -0.83619
LeftFoot  5.58193 0.937816 -6.52834
LeftToes  -2.21735e-009 9.83027e-011 -4.04511e-011
63
root  15.5505 38.4642 -0.4653 100.575 -83.0977 -111.799
RightUpLeg  5.00941 -8.99289 5.17829
RightLeg  19.3703 -9.85137 -0.731765
RightFoot  -13.6077 -0.145414 -2.70118
RightToes  3.49245e-010 0 -3.6325e-017
Spine  8.84449 -1.72948 14.9408
Spine1  5.80112 -0.0840356 -0.738614
HEad  -0.174658 4.84054 -5.82908
LeftShoulder1  -0.688193 5.32389 -31.6568
LeftArm  1.28673 14.0303 -40.6609
LeftForeArm  21.0839 -17.9328 -5.30102
LeftHand  0.000223628 7.9695 1.83841
RightShoulder  -0.938593 -6.06445 30.0755
RightArm  10.9083 -2.73802 44.0895
RightForeArm  11.5826 9.84583 5.87461
RightHand  -0.456723 5.68418 -5.09868
LeftUpLeg  -8.97336 2.25767 19.1951
LeftLeg  14.3208 -4.38485 -0.971825
LeftFoot  6.16489 0.937909 -6.33077
LeftToes  -2.21735e-009 9.83027e-011 -4.04511e-011
64
root  15.4809 38.5182 -0.450662 96.9735 -83.486 -107.707
RightUpLeg  4.84291 -8.92297 4.91449
RightLeg  18.9092 -10.3712 -0.66084
RightFoot  -13.4231 -0.138361 -2.61941
RightToes  3.49245e-010 0 -3.6325e-017
Spine  8.94043 -1.75424 14.2553
Spine1  5.61275 -0.287968 -0.317647
HEad  -2.28312 4.25145 -6.06227
LeftShoulder1  -0.702288 5.34379 -32.0099
LeftArm  1.89001 14.1726 -40.2923
LeftForeArm  20.5829 -18.7288 -4.99924
LeftHand  -0.0163125 6.41618 1.85566
RightShoulder  -0.898732 -5.97061 29.843
RightArm  11.6255 -3.32633 44.0952
RightForeArm  11.0927 10.9097 5.8674
RightHand  -0.404939 5.28184 -4.71205
LeftUpLeg  -9.10594 2.83457 18.79
LeftLeg  13.4079 -5.1429 -1.10202
LeftFoot  6.60014 0.988383 -6.51163
LeftToes  -2.21735e-009 9.83027e-011 -4.04511e-011
65
root  15.4162 38.581 -0.437264 96.191 -83.833 -106.226
RightUpLeg  4.41366 -8.70708 4.69677
RightLeg  18.4354 -10.6265 -0.646141
RightFoot  -13.1992 -0.129435 -2.47966
RightToes  3.49245e-010 0 -3.6325e-017
Spine  9.04563 -1.58335 13.9036
Spine1  5.12273 -0.172636 -0.382742
HEad  -4.85988 3.55975 -6.1559
LeftShoulder1  -0.714934 5.36248 -32.3015
LeftArm  2.17048 13.8902 -39.9508
LeftForeArm  20.4582 -18.5714 -5.09321
LeftHand  -0.0247043 5.86545 1.4679
RightShoulder  -0.89674 -5.96109 29.9006
RightArm  11.9846 -3.59827 44.0237
RightForeArm  11.0799 11.1087 5.91043
RightHand  -0.413657 5.59946 -4.68355
LeftUpLeg  -9.25892 3.64403 18.3381
LeftLeg  12.3513 -5.84952 -1.10919
LeftFoot  7.06477 1.04741 -6.72638
LeftToes  -2.21735e-009 9.83027e-011 -4.04511e-011
66
root  15.3391 38.6461 -0.421565 91.3398 -84.1764 -100.672
RightUpLeg  4.09438 -8.59459 4.45388
RightLeg  17.8571 -11.1861 -0.514558
RightFoot  -12.9591 -0.122106 -2.44376
RightToes  3.49245e-010 0 -3.6325e-017
Spine  8.94091 -1.58763 13.9956
Spine1  4.73212 -0.100827 -1.05025
HEad  -7.29033 2.68315 -6.19482
LeftShoulder1  -0.626511 5.15104 -31.888
LeftArm  0.786995 13.5121 -40.3379
LeftForeArm  21.886 -17.5815 -5.37225
LeftHand  -0.0275386 5.53246 1.62735
RightShoulder  -0.894856 -5.95685 29.8857
RightArm  11.5381 -3.60172 44.4216
RightForeArm  11.5578 10.3408 5.97093
RightHand  -0.408949 4.94851 -4.88826
LeftUpLeg  -9.47472 4.09303 17.7927
LeftLeg  11.1693 -6.66972 -0.961635
LeftFoot  7.58944 1.10413 -6.89492
LeftToes  -2.21735e-009 9.83027e-011 -4.04511e-011
67
root  15.2848 38.6957 -0.424894 84.9457 -84.4376 -93.5393
RightUpLeg  3.63247 -8.42656 4.3394
RightLeg  17.4166 -11.9462 -0.488578
RightFoot  -12.8185 -0.117772 -2.4118
RightToes  3.49245e-010 0 -3.6325e-017
Spine  8.9197 -1.54841 13.6375
Spine1  4.15553 -0.170231 -0.979673
HEad  -8.93902 1.97063 -6.12461
LeftShoulder1  -0.578612 5.02681 -31.8432
LeftArm  -0.59315 13.0449 -40.6208
LeftForeArm  23.1289 -16.5774 -5.65133
LeftHand  -0.021438 7.33893 0.990677
RightShoulder  -0.908481 -5.9896 29.9545
RightArm  10.9679 -3.18685 44.6428
RightForeArm  12.1553 9.17688 6.00934
RightHand  -0.408547 4.65212 -5.00418
LeftUpLeg  -9.88305 4.27222 17.2403
LeftLeg  10.1325 -7.30229 -0.697853
LeftFoot  8.08805 1.17917 -7.17063
LeftToes  -2.21735e-009 9.83027e-011 -4.04511e-011
68
root  15.2083 38.7668 -0.429159 81.833 -84.8048 -89.9126
RightUpLeg  3.52909 -8.31741 4.01519
RightLeg  16.7561 -12.286 -0.41867
RightFoot  -12.5492 -0.109301 -2.31888
RightToes  3.49245e-010 0 -3.6325e-017
Spine  8.66273 -1.38252 13.3423
Spine1  4.1701 -0.00971831 -1.34547
HEad  -10.3456 1.0799 -6.17999
LeftShoulder1  -0.537561 4.9254 -31.6683
LeftArm  -1.25265 12.5197 -40.9401
LeftForeArm  23.8558 -15.911 -5.86416
LeftHand  -0.0181391 7.05229 1.33425
RightShoulder  -0.853361 -5.86012 29.6112
RightArm  10.272 -2.93382 45.3098
RightForeArm  12.083 8.35427 5.93263
RightHand  -0.478669 5.45446 -5.44268
LeftUpLeg  -9.71258 4.97146 16.4923
LeftLeg  8.77157 -8.17111 -0.246919
LeftFoot  8.6195 1.23888 -7.33313
LeftToes  -2.21735e-009 9.83027e-011 -4.04511e-011
